<?xml version="1.0" encoding="utf-8"?>
<!-- Generator: Adobe Illustrator 22.1.0, SVG Export Plug-In . SVG Version: 6.00 Build 0)  -->
<svg version="1.1" xmlns="http://www.w3.org/2000/svg" xmlns:xlink="http://www.w3.org/1999/xlink" x="0px" y="0px"
	 viewBox="0 0 100 100" style="enable-background:new 0 0 100 100;" xml:space="preserve">
<style type="text/css">
	.st0{fill:#FFFFFF;}
	.st1{fill:none;stroke:#000000;stroke-miterlimit:10;}
</style>
<g id="Layer_1">
	<g>
		<path d="M16.3,80.3c0.4,0.1,0.9,0.2,1.4,0.3l73.1,8.6c0.3,0,0.7,0.1,1,0.1c4.4,0,7.8-3.5,7.8-8.2l0-3l0-3.6h0l0-4.9l0,0l0.1-14
			l0,0l0-2.7l0,0l0.1-7.5c0,0.1,0,0.2,0,0.3l0-8.1h0c0-0.1,0-0.3,0-0.4l0-0.5c0-0.5,0-1-0.1-1.4c-0.8-9.1-6.7-10.2-6.7-10.2
			s-26.6-8.2-35.6-12c-9-3.7-14.5-1.5-14.5-1.5s-18.3,4.5-26.4,6.2c0,0,0,0,0,0c-3.6,0.1-6.4,2.6-7.3,6.1c0,0.2-0.1,0.5-0.1,1.1
			l-0.1-0.3c0,0-1.2,14-8.6,17.8c-2.1,1.1,4.7,1.7,8.7-2c0,2.5,0,4.9,0,7c0,8.5-0.3,23.1-0.3,23.1C8.9,75,12.1,79.1,16.3,80.3
			 M96.3,77.6l0,3c0,3.7-0.9,4.7-4.4,4.7c-0.3,0-0.5,0-0.8,0l-67.4-7.8c-3.4-0.7-4.4-2.9-4.4-4.7c0.1-0.5,0.1-0.9,0.2-1.4l-0.1,1.3
			l0-0.1c0-0.8,0.1-2.8,0.3-5.2c0-0.7,0.1-1.5,0.1-2.3l76.6,8.6L96.3,77.6z M96.5,69.2L20,60.1c0.1-2.3,0.2-4.3,0.2-5.1
			c0-0.6,0-1.3,0-2.1l0,0v0c0-1.1-0.1-2.5-0.2-4l76.5,8.6L96.5,69.2z M96.6,52.4l-76.8-8.6c-0.2-4.1-0.3-7.9-0.3-8.2
			c0,0,0-2.2,1.3-3.5c0.8-0.8,1.9-1.2,3.3-1.2c0.4,0,0.7,0,1.1,0.1c3.9,0.5,18.2,1.9,32,3.4c14.8,1.5,30.2,3.1,32,3.4
			c0.3,0,0.7,0.1,1.1,0.1c1.7,0.2,2.4,0.2,3.9,1c1.6,0.8,2.3,2,2.3,3.9L96.6,52.4z"/>
	</g>
</g>
<g id="Layer_2">
	<polygon class="st0" points="96.3,75.7 19.3,72.6 19.5,35.6 96.5,49.4 96.5,69.2 	"/>
</g>
<g id="Layer_3">
	<polyline class="st1" points="19.2,69.2 23,72.7 26.8,73.2 31.1,70.7 32.9,65.9 35.8,67.3 38.6,74.6 40.1,67.8 41.6,70 43,69.2 
		45,71.4 47.1,73.7 50,72.1 52.7,76.4 54.7,71.6 56.2,71.8 57.8,73 59.2,72.2 61.2,75.4 63.8,72.8 65.3,76 67.4,73.2 69,78.4 
		70.9,72.7 72.6,75.9 75.7,73.3 78.4,77.6 81.1,73.9 85.4,77.5 89.6,79 96.3,78.8 	"/>
	<polyline class="st1" points="19.2,63.2 23,66.6 26.8,68.2 31.1,62.7 32.9,60.9 35.8,61.2 38.6,67.6 40.1,61.8 41.6,64 43,63.1 
		45,65.4 47.1,67.7 50,66 52.7,70.4 54.7,65.6 56.2,65.8 57.8,67 59.2,66.2 61.2,69.4 63.8,66.7 65.3,69.9 67.4,67.2 69,70.4 
		70.9,66.6 72.6,69.8 75.7,69.2 78.4,71.6 81.1,67.9 85.4,71.4 89.6,73 96.3,72.8 	"/>
	<polyline class="st1" points="19.2,57.1 23,60.6 26.8,61.1 31.1,56.6 32.9,57.8 35.8,55.2 38.6,57.6 40.1,55.7 41.6,57.9 43,59.1 
		45,59.4 47.1,58.6 50,64 52.7,58.3 54.7,59.6 56.2,59.7 57.8,60.9 59.2,60.1 61.2,63.4 63.8,60.7 65.3,63.9 67.4,61.2 69,63.3 
		70.9,60.6 72.6,63.8 75.7,64.2 78.4,65.5 81.1,61.9 85.4,63.4 89.6,66.9 96.3,66.8 	"/>
	<polyline class="st1" points="19.2,51.1 23,54.6 26.8,53.1 31.1,50.6 32.9,53.8 35.8,49.2 38.6,51.5 40.1,49.7 41.6,51.9 43,51.1 
		45,53.3 47.1,55.6 50,53.9 52.7,56.3 54.7,53.5 56.2,53.7 57.8,54.9 59.2,54.1 61.2,57.3 63.8,52.7 65.3,57.8 67.4,55.1 69,56.3 
		70.9,54.5 72.6,57.8 75.7,55.1 78.4,59.5 81.1,55.8 85.4,59.3 89.6,58.9 96.3,60.7 	"/>
	<polyline class="st1" points="19.2,45.1 23,48.5 26.8,45.1 31.1,44.5 32.9,42.8 35.8,43.1 38.6,42.5 40.1,43.7 41.6,45.9 43,45 
		45,47.3 47.1,46.5 50,47.9 52.7,52.2 54.7,47.5 56.2,47.7 57.8,48.9 59.2,48.1 61.2,51.3 63.8,48.6 65.3,51.8 67.4,49.1 69,48.3 
		70.9,48.5 72.6,51.7 75.7,49.1 78.4,53.4 81.1,49.8 85.4,53.3 89.6,54.8 96.3,54.7 	"/>
	<polyline class="st1" points="19.2,39 23,42.5 26.8,39 31.1,38.5 32.9,34.7 35.8,37.1 38.6,39.4 40.1,35.6 41.6,39.8 43,39 
		45,41.2 47.1,43.5 50,41.9 52.7,39.2 54.7,41.4 56.2,41.6 57.8,42.8 59.2,42 61.2,45.3 63.8,42.6 65.3,45.8 67.4,43 69,40.2 
		70.9,42.5 72.6,45.7 75.7,43.1 78.4,47.4 81.1,43.7 85.4,46.3 89.6,48.8 96.3,48.6 	"/>
</g>
</svg>
