<svg xmlns="http://www.w3.org/2000/svg" xmlns:xlink="http://www.w3.org/1999/xlink" version="1.1" x="0px" y="0px" viewBox="0 0 100 100" enable-background="new 0 0 100 100" xml:space="preserve"><g><path d="M16.346,80.315c0.44,0.123,0.892,0.212,1.351,0.267l73.142,8.649c0.338,0.039,0.673,0.06,1.002,0.06   c4.39,0,7.813-3.484,7.832-8.204l0.013-3.021l0.014-3.634h0.002l0.02-4.885l-0.002-0.003l0.054-14.005l-0.042-0.002l0.048-2.747   l-0.03-0.005l0.057-7.548c0.007,0.091,0.013,0.181,0.017,0.274l0.021-8.099h0.004c0-0.128-0.001-0.256-0.002-0.382l0.002-0.528   c0.001-0.478-0.032-0.951-0.097-1.417c-0.826-9.097-6.677-10.224-6.677-10.224s-26.601-8.243-35.592-11.988   c-8.992-3.748-14.462-1.499-14.462-1.499s-18.321,4.495-26.376,6.195c-0.01,0.002-0.02,0.004-0.029,0.007   c-3.57,0.142-6.444,2.603-7.268,6.129c-0.041,0.16-0.073,0.548-0.097,1.12l-0.083-0.272c0,0-1.193,14.042-8.61,17.751   c-2.133,1.067,4.72,1.686,8.667-2.048c0.015,2.482,0.027,4.909,0.027,7.009c0,8.508-0.316,23.091-0.316,23.091   C8.915,74.952,12.131,79.139,16.346,80.315 M96.296,77.577l-0.013,3.021c-0.014,3.653-0.945,4.734-4.372,4.734   c-0.259,0-0.525-0.016-0.79-0.048l-67.434-7.819c-3.389-0.686-4.354-2.911-4.439-4.664c0.058-0.464,0.114-0.933,0.168-1.405   l-0.104,1.309l0.002-0.068c0.026-0.752,0.142-2.833,0.274-5.246c0.04-0.731,0.083-1.492,0.125-2.261l76.597,8.611L96.296,77.577z    M96.483,69.219L19.98,60.071c0.115-2.335,0.196-4.282,0.189-5.135c-0.004-0.614-0.014-1.293-0.027-2.134l-0.001-0.021v-0.021   c-0.042-1.062-0.095-2.479-0.154-4.044l76.542,8.649L96.483,69.219z M96.562,52.384L19.8,43.808   c-0.155-4.145-0.297-7.943-0.306-8.181c-0.001-0.05-0.037-2.175,1.253-3.501c0.76-0.781,1.854-1.163,3.347-1.163   c0.36,0,0.746,0.023,1.146,0.071c3.88,0.45,18.17,1.931,31.991,3.362c14.835,1.536,30.174,3.124,32.04,3.377   c0.35,0.048,0.727,0.089,1.127,0.135c1.674,0.188,2.369,0.222,3.943,1.021c1.592,0.809,2.298,2.02,2.291,3.919L96.562,52.384z"></path></g></svg>